<svg id="visual" viewBox="0 0 960 300" width="960" height="300" xmlns="http://www.w3.org/2000/svg" xmlns:xlink="http://www.w3.org/1999/xlink" version="1.1"><rect x="0" y="0" width="960" height="300" fill="#101d27"></rect><path d="M0 141L40 154C80 167 160 193 240 198.3C320 203.7 400 188.3 480 177.3C560 166.3 640 159.7 720 159.8C800 160 880 167 920 170.5L960 174L960 301L920 301C880 301 800 301 720 301C640 301 560 301 480 301C400 301 320 301 240 301C160 301 80 301 40 301L0 301Z" fill="#33cba1" stroke-linecap="round" stroke-linejoin="miter"></path></svg>