<svg id="visual" viewBox="0 0 960 540" width="960" height="540" xmlns="http://www.w3.org/2000/svg" xmlns:xlink="http://www.w3.org/1999/xlink" version="1.1"><rect x="0" y="0" width="960" height="540" fill="#001220"></rect><path d="M0 468L32 462.8C64 457.7 128 447.3 192 440.5C256 433.7 320 430.3 384 431.2C448 432 512 437 576 446C640 455 704 468 768 472.2C832 476.3 896 471.7 928 469.3L960 467L960 541L928 541C896 541 832 541 768 541C704 541 640 541 576 541C512 541 448 541 384 541C320 541 256 541 192 541C128 541 64 541 32 541L0 541Z" fill="#00def6" stroke-linecap="round" stroke-linejoin="miter"></path></svg>