<svg id="visual" viewBox="0 0 960 300" width="960" height="300" xmlns="http://www.w3.org/2000/svg" xmlns:xlink="http://www.w3.org/1999/xlink" version="1.1"><rect x="0" y="0" width="960" height="300" fill="#001220"></rect><path d="M0 108L32 100.7C64 93.3 128 78.7 192 74.2C256 69.7 320 75.3 384 81.3C448 87.3 512 93.7 576 96.5C640 99.3 704 98.7 768 95.8C832 93 896 88 928 85.5L960 83L960 0L928 0C896 0 832 0 768 0C704 0 640 0 576 0C512 0 448 0 384 0C320 0 256 0 192 0C128 0 64 0 32 0L0 0Z" fill="#00def6" stroke-linecap="round" stroke-linejoin="miter"></path></svg>