<svg id="Laag_1" data-name="Laag 1" xmlns="http://www.w3.org/2000/svg" viewBox="0 0 476.23 533.28"><defs><style>.cls-1{fill:#ff9d00;}</style></defs><path d="M1084.09,631.13q-53.34-87-53.52-87c0-2.31,3.21-5.3,9.57-9q46.69-27.24,82.68-136.9Q1135,361.1,1135,351.51c0-4.45-2.31-6.65-7-6.65q-7.55,0-23.06.56t-23.36.58q-7.53,0-22.77-.85t-22.76-.88q-9.87,0-13,7.24-21.19,54.83-30.47,83-14.48,36.84-28.71,50.75-19.14,18.86-53.65,18.86-13.63,0-13.63-24.95,0-21.45,2.16-64.82t2.19-64.82c0-3.5-1.64-5.23-4.93-5.23-.42,0-.86,0-1.31,0q-9,0-26,.86-18.27.84-27.55.85h-.63q-9,0-26.49-.85-11.2-.54-18.92-.75c.84,4.14,1.57,7.88,2.17,10.94l-16.46-3.78q0,21.78,1.23,57.41.64,19.35,1.66,42.76a1.77,1.77,0,0,0,0,.33q2.88,67.21,2.89,100.76,0,31.62-3,94.85t-3,94.56c0,4.83,2.81,7.82,8.4,9q12.21,2.31,49.91,2.31,39.42,0,54.52-2.31,7.83-1.15,7.84-10.16,0-22-1.75-66t-1.75-65.7q0-4.93,31.34-16.25,6.66,6.4,41.18,69,20.89,38.9,42.06,77.75,3.78,6.68,6.24,8.26c1.65,1.08,5.08,2.08,10.3,3.06q16.52,2.89,52.21,2.89,37.13,0,45.83-2.89,10.72-3.78,10.73-16.25Q1137.61,718.43,1084.09,631.13Z" transform="translate(-661.39 -220.83)"/><path class="cls-1" d="M894.69,344.29,783.75,452.06l-.25.23c-1.58-.77-7.11-3.37-15.25-6.68L782.07,409,799,364.1s-.65-3.35-1.71-8.76c-.6-3.06-1.33-6.8-2.17-10.94-4.76-24-12.42-62.06-14-66.86-2.42-7.12,86.38,63.84,62.63,31.69s34.59-122.15,28.53-75c-4.24,33,8.47,73.85,16.48,95.31C892.15,338.68,894.69,344.29,894.69,344.29Z" transform="translate(-661.39 -220.83)"/><path class="cls-1" d="M894.69,344.29,783.75,452.06l-.25.23c-1.58-.77-7.11-3.37-15.25-6.68-21.5-8.67-61-22.14-93.58-19-47.3,4.56,44.51-50.92,75.87-26.13s-36.71-66.26-29.69-63.62c4.35,1.65,36.31,9.18,60,14.7l16.46,3.78c5.83,1.36,9.51,2.19,9.51,2.19L840.54,346l48.19-16.48C892.15,338.68,894.69,344.29,894.69,344.29Z" transform="translate(-661.39 -220.83)"/></svg>