<svg id="visual" viewBox="0 0 960 300" width="960" height="300" xmlns="http://www.w3.org/2000/svg" xmlns:xlink="http://www.w3.org/1999/xlink" version="1.1"><rect x="0" y="0" width="960" height="300" fill="#001220"></rect><path d="M0 105L26.7 99C53.3 93 106.7 81 160 86C213.3 91 266.7 113 320 102.5C373.3 92 426.7 49 480 28.7C533.3 8.3 586.7 10.7 640 34.2C693.3 57.7 746.7 102.3 800 112.5C853.3 122.7 906.7 98.3 933.3 86.2L960 74L960 0L933.3 0C906.7 0 853.3 0 800 0C746.7 0 693.3 0 640 0C586.7 0 533.3 0 480 0C426.7 0 373.3 0 320 0C266.7 0 213.3 0 160 0C106.7 0 53.3 0 26.7 0L0 0Z" fill="#c547c5" stroke-linecap="round" stroke-linejoin="miter"></path></svg>