<svg id="visual" viewBox="0 0 960 300" width="960" height="300" xmlns="http://www.w3.org/2000/svg" xmlns:xlink="http://www.w3.org/1999/xlink" version="1.1"><rect x="0" y="0" width="960" height="300" fill="#001220"></rect><path d="M0 260L26.7 261.8C53.3 263.7 106.7 267.3 160 267.7C213.3 268 266.7 265 320 250.5C373.3 236 426.7 210 480 194.3C533.3 178.7 586.7 173.3 640 177C693.3 180.7 746.7 193.3 800 202C853.3 210.7 906.7 215.3 933.3 217.7L960 220L960 301L933.3 301C906.7 301 853.3 301 800 301C746.7 301 693.3 301 640 301C586.7 301 533.3 301 480 301C426.7 301 373.3 301 320 301C266.7 301 213.3 301 160 301C106.7 301 53.3 301 26.7 301L0 301Z" fill="#c547c5" stroke-linecap="round" stroke-linejoin="miter"></path></svg>